PathFileType	4	(X/Y/Z)	./resultDataOpenSim/trcMotMarkerGrf/sub09/qtm-03-07.trc
DataRate	CameraRate	NumFrames	NumMarkers	Units	OrigDataRate	OrigDataStartFrame	OrigNumFrames
250.000000	250.000000	11	24	m	250.000000	62	491
Frame#	Time	L.Toe.Tip			R.Toe.Tip			L.Ankle.Lat			R.Ankle.Lat			L.Ankle.Med			R.Ankle.Med			L.Heel			R.Heel			L.Knee.Lat			R.Knee.Lat			L.Knee.Med			R.Knee.Med			L.Thigh.Upper			R.Thigh.Upper			L.ASIS			R.ASIS			V.Sacral			L.Acromium			R.Acromium			C7			L.Elbow			R.Elbow			L.Wrist.Lat			R.Wrist.Lat
		X1	Y1	Z1	X2	Y2	Z2	X3	Y3	Z3	X4	Y4	Z4	X5	Y5	Z5	X6	Y6	Z6	X7	Y7	Z7	X8	Y8	Z8	X9	Y9	Z9	X10	Y10	Z10	X11	Y11	Z11	X12	Y12	Z12	X13	Y13	Z13	X14	Y14	Z14	X15	Y15	Z15	X16	Y16	Z16	X17	Y17	Z17	X18	Y18	Z18	X19	Y19	Z19	X20	Y20	Z20	X21	Y21	Z21	X22	Y22	Z22	X23	Y23	Z23	X24	Y24	Z24

62	0.244	-1.3975956	0.092325714	-0.073365449	-0.67135086	0.039928646	0.056325441	-1.4177602	0.24859324	-0.11546803	-0.81711099	0.052470909	0.082015611	-1.3919656	0.23212687	-0.022961203	-0.80808587	0.093264637	-0.0044872696	-1.477944	0.29406879	-0.064768333	-0.88465675	0.03243629	0.03242499	-1.0441003	0.42613796	-0.14501756	-0.77315658	0.50350929	0.15654262	-1.0286994	0.41085571	-0.021433273	-0.78433277	0.49352428	0.029087691	-1.0051697	0.83206286	-0.15914117	-0.96722245	0.85852226	0.21346445	-0.9121127	0.91653027	-0.10806337	-0.89658005	0.94303892	0.13194229	-1.0725729	0.98668205	0.019104966	-0.89769468	1.3839489	-0.14680143	-0.91873743	1.3862318	0.17955968	-0.97467432	1.4388754	0.01737837	-0.98115979	1.0165361	-0.20378066	-1.0659081	1.0580109	0.25970024	-0.74502218	0.88294852	-0.19648214	-0.96159174	0.80580542	0.29315219
63	0.248	-1.3837463	0.094729728	-0.074817252	-0.67135522	0.039851703	0.056255079	-1.4048341	0.25100621	-0.11509743	-0.81773491	0.052575767	0.083073222	-1.3784774	0.23413203	-0.022952019	-0.80792659	0.093278239	-0.0044857916	-1.4652699	0.29616244	-0.064393802	-0.88479312	0.032228502	0.032355726	-1.0307072	0.42648845	-0.14438026	-0.76966601	0.5031888	0.15675103	-1.0154336	0.41113069	-0.020570743	-0.78121936	0.49320442	0.029384442	-0.9982908	0.83273759	-0.15891256	-0.96098221	0.86001645	0.21371551	-0.90606229	0.91767248	-0.10780863	-0.8898625	0.9443238	0.13213613	-1.066507	0.987882	0.019275318	-0.8918505	1.3850366	-0.1465967	-0.91241705	1.3872033	0.17987602	-0.96852387	1.4400897	0.017906097	-0.97528886	1.0177251	-0.20237293	-1.0586634	1.0582373	0.26043509	-0.74127661	0.88104196	-0.19647107	-0.9521966	0.80677849	0.29309283
64	0.252	-1.3695524	0.096881108	-0.076189509	-0.67138392	0.039780255	0.0562097	-1.3916484	0.25310497	-0.11472716	-0.81839792	0.05272387	0.083969997	-1.3647917	0.23585449	-0.022898714	-0.80784729	0.093284628	-0.0044824424	-1.4525191	0.29780339	-0.063888755	-0.88518952	0.031817358	0.032370491	-1.017367	0.4270132	-0.14378369	-0.76635486	0.50283175	0.15699487	-1.0023416	0.41149427	-0.019603164	-0.77826638	0.49285236	0.029787608	-0.99147624	0.83353325	-0.15868949	-0.9554672	0.86152328	0.21382664	-0.90009591	0.91890259	-0.10758278	-0.88311436	0.94568856	0.13230817	-1.0604653	0.9891544	0.019463307	-0.88618855	1.3861998	-0.14643491	-0.906164	1.3882411	0.18020473	-0.96241382	1.4413607	0.018424942	-0.96953051	1.018967	-0.20111549	-1.0514795	1.0585554	0.26107441	-0.73765918	0.8792192	-0.19649118	-0.94288326	0.80783252	0.2929751
65	0.256	-1.3550874	0.09878203	-0.077482416	-0.67142272	0.039732049	0.056195564	-1.3782334	0.25487487	-0.11435848	-0.8188289	0.052860934	0.084428885	-1.3511538	0.23716898	-0.02265063	-0.80779639	0.093291483	-0.0044750993	-1.4396465	0.29905964	-0.063394314	-0.88576001	0.031327635	0.032467815	-1.0040809	0.42771082	-0.14320674	-0.76324103	0.50245302	0.15726224	-0.989264	0.41198405	-0.018617334	-0.77542128	0.49249113	0.030201547	-0.98472172	0.83444838	-0.15846085	-0.95113611	0.86295455	0.21372733	-0.89417984	0.92021796	-0.10736198	-0.87654762	0.94709949	0.13244726	-1.054495	0.99048475	0.019612152	-0.880582	1.3874419	-0.14627076	-0.8999744	1.3893471	0.18054095	-0.95633916	1.4426877	0.018931315	-0.96389289	1.020274	-0.20007008	-1.0443603	1.0589685	0.26162796	-0.73427037	0.87748379	-0.19657631	-0.93357467	0.80898582	0.29282264
66	0.26	-1.3403403	0.10045466	-0.078701957	-0.67146016	0.03970153	0.056213879	-1.3646401	0.25632456	-0.11399819	-0.81905236	0.0529793	0.084565277	-1.337768	0.2380983	-0.022171412	-0.80773657	0.093303373	-0.0044602835	-1.4266373	0.29997577	-0.062963739	-0.88627486	0.030953015	0.032578463	-0.99083503	0.42857284	-0.14258885	-0.76035293	0.50207048	0.15756104	-0.97608682	0.41264231	-0.017683313	-0.77261127	0.49214143	0.030531122	-0.97801359	0.83548029	-0.15821648	-0.94782822	0.86429715	0.21346323	-0.88828296	0.92161296	-0.10713319	-0.87039102	0.94852858	0.13253124	-1.0486608	0.99188226	0.019618089	-0.874978	1.3887586	-0.14609249	-0.89382743	1.3905217	0.18087287	-0.95029528	1.4440608	0.019421704	-0.95834284	1.0216677	-0.19912797	-1.037302	1.0594705	0.26213712	-0.73114558	0.87583056	-0.19672705	-0.92426334	0.8102469	0.29264676
67	0.264	-1.3252567	0.10193775	-0.079850785	-0.67149254	0.039670686	0.056263863	-1.3509255	0.2574818	-0.11364844	-0.81918899	0.053096651	0.084583926	-1.3248005	0.23876885	-0.021498307	-0.80766197	0.0933193	-0.0044362204	-1.4134985	0.30057012	-0.062567576	-0.8865722	0.030784959	0.032639056	-0.97762157	0.42958137	-0.14188245	-0.7577065	0.50169445	0.15787383	-0.96288634	0.41349401	-0.016790377	-0.76980688	0.49182133	0.030759536	-0.97133233	0.83662286	-0.15793377	-0.94444485	0.86565909	0.21323951	-0.88239333	0.92308381	-0.10689909	-0.86469842	0.94995996	0.13255265	-1.0430012	0.99336384	0.019399786	-0.86938742	1.3901418	-0.14591317	-0.88770516	1.3917659	0.18119263	-0.94428204	1.4454712	0.019893335	-0.95285629	1.0231586	-0.19819631	-1.0303065	1.0600493	0.26263239	-0.7282129	0.8742563	-0.19689796	-0.91497296	0.81161985	0.2924474
68	0.268	-1.3097973	0.10325799	-0.080915405	-0.67152409	0.039630482	0.056343878	-1.3371295	0.25837654	-0.11330116	-0.81929796	0.053213908	0.084587003	-1.3121835	0.2392735	-0.020686274	-0.80757918	0.093337819	-0.0044039967	-1.4002449	0.3008427	-0.06214673	-0.8866671	0.030774073	0.03264331	-0.96445731	0.43072493	-0.14109368	-0.75524472	0.50132015	0.15813481	-0.94975915	0.41455455	-0.015878527	-0.76704843	0.49154527	0.030932663	-0.96466434	0.83787294	-0.1575672	-0.93989385	0.86716309	0.21324185	-0.87651543	0.9246304	-0.10666585	-0.8592368	0.95139621	0.13254116	-1.0374488	0.99491893	0.019028047	-0.8638307	1.3915872	-0.14574223	-0.88160589	1.39308	0.18150017	-0.93829611	1.4469159	0.020349506	-0.94743028	1.0247442	-0.19724547	-1.023372	1.0606856	0.26312007	-0.72537089	0.87277018	-0.19704051	-0.90572651	0.81310491	0.29222041
69	0.272	-1.2939608	0.10441245	-0.081870924	-0.67156053	0.039589282	0.056451042	-1.3232371	0.25902452	-0.11295684	-0.81938149	0.053321513	0.084587205	-1.2994051	0.23963239	-0.019866852	-0.80749486	0.093358744	-0.0043659211	-1.386886	0.30076613	-0.061622991	-0.88666217	0.030829308	0.032612914	-0.95137271	0.43200749	-0.14026135	-0.75278111	0.50091957	0.15828975	-0.93666582	0.41582726	-0.014904697	-0.7644272	0.49132279	0.031113514	-0.95801277	0.83922518	-0.15709664	-0.93409156	0.86881688	0.21346496	-0.87066083	0.92625636	-0.10643229	-0.8536947	0.95284622	0.13254342	-1.0318262	0.99650155	0.0187543	-0.85831633	1.3930927	-0.14557608	-0.87553597	1.3944622	0.18180139	-0.93233179	1.4483949	0.020798202	-0.94207581	1.026415	-0.19628053	-1.0164771	1.0613626	0.26358749	-0.72257863	0.87138911	-0.19714538	-0.89653781	0.81469741	0.29196329
70	0.276	-1.2777897	0.10538174	-0.082690371	-0.67160289	0.039560597	0.05657896	-1.3091477	0.25941688	-0.11264391	-0.81942946	0.053413334	0.084570491	-1.2855463	0.23986594	-0.019345048	-0.80741412	0.093381225	-0.0043238053	-1.373419	0.30029548	-0.060922791	-0.88663675	0.030898209	0.032561053	-0.93838086	0.43344575	-0.13941142	-0.75011623	0.50046547	0.15836421	-0.92353392	0.41729583	-0.013867232	-0.76201609	0.49115292	0.0313427	-0.95140116	0.84065908	-0.15658808	-0.92767478	0.87053763	0.21378235	-0.86484207	0.92795997	-0.10619325	-0.84796041	0.95430519	0.13258293	-1.0259744	0.9980617	0.01884132	-0.85284719	1.3946526	-0.14541102	-0.86949211	1.3959038	0.1820998	-0.92640191	1.4499007	0.021222222	-0.93680263	1.0281642	-0.19531118	-1.0095795	1.0620743	0.26401321	-0.71984775	0.87012555	-0.19723102	-0.88740257	0.81639175	0.2916759
71	0.28	-1.2613687	0.1061491	-0.083338327	-0.67164842	0.039547295	0.056716221	-1.2947788	0.25953604	-0.11238071	-0.81943782	0.05348818	0.084527453	-1.2700149	0.24001028	-0.019379077	-0.80733858	0.093404469	-0.0042790471	-1.3598407	0.29942145	-0.060091764	-0.88662014	0.030971133	0.032495184	-0.92545115	0.43505957	-0.13854113	-0.74729076	0.4999802	0.1584281	-0.91038796	0.41893827	-0.012795609	-0.75979101	0.49101924	0.031607071	-0.94485945	0.84214894	-0.15615709	-0.92119034	0.87225008	0.21410293	-0.85906494	0.92972497	-0.1059493	-0.84210855	0.95575748	0.13265736	-1.0198443	0.99958829	0.019396202	-0.8474288	1.3962596	-0.14525343	-0.86346377	1.3973914	0.18239144	-0.92056595	1.4513949	0.02153291	-0.93161031	1.0299902	-0.19434282	-1.002627	1.0628214	0.26437961	-0.71719109	0.86898266	-0.19731009	-0.87829458	0.81818926	0.29135795
72	0.284	-1.2448008	0.10670021	-0.083769045	-0.67169457	0.039542112	0.056851367	-1.2802481	0.25939162	-0.11211985	-0.81940971	0.053547308	0.084458539	-1.2534424	0.2400302	-0.01978024	-0.80725968	0.093431767	-0.0042319868	-1.3461631	0.29820826	-0.05937985	-0.88661186	0.031053511	0.032428083	-0.91248141	0.43685793	-0.13763384	-0.74455224	0.49952459	0.15849449	-0.89729095	0.42073877	-0.011727524	-0.75765367	0.49089995	0.031858143	-0.93840644	0.84368168	-0.15587654	-0.91483994	0.87392299	0.21440411	-0.85332717	0.93153313	-0.10571081	-0.83623903	0.95719283	0.13275832	-1.0135172	1.0011279	0.02028826	-0.84205917	1.3979105	-0.14510962	-0.85744694	1.3989155	0.18267049	-0.91492714	1.4528102	0.021577037	-0.92648729	1.0318855	-0.19337502	-0.9955775	1.0636089	0.26468309	-0.71461371	0.86795575	-0.1973844	-0.86918127	0.82009726	0.29100877
